<svg width="393" height="276" viewBox="0 0 393 276" fill="none" xmlns="http://www.w3.org/2000/svg">
<rect width="393" height="276" rx="30" fill="url(#paint0_linear_94_2755)"/>
<path d="M10 221H383" stroke="#080338"/>
<path d="M25 220C25 220 26.0213 164.353 45.5 165.334C59.4492 166.036 62.3898 193.696 76 197.319C99.8258 203.663 98.0685 122.041 122.5 122.881C146.264 123.697 137.256 191.515 160.5 197.319C199.262 206.999 165.869 79.7717 205.5 81.009C244.626 82.2304 209.28 207.134 247.5 197.319C273.434 190.66 267 155.692 285.5 153.121C304 150.551 301.745 214.678 328.5 200.809C346.446 191.506 344.438 153.121 358 149.05C373.5 144.398 374.5 221.5 374.5 221.5" stroke="#080338"/>
<path d="M45.4708 165.334C26.0199 164.353 25 220 25 220H375C375 220 373.003 144.398 357.525 149.05C343.982 153.121 345.988 191.506 328.067 200.809C301.35 214.678 303.602 150.551 285.128 153.121C266.655 155.692 273.08 190.66 247.183 197.319C209.017 207.134 244.313 82.2304 205.243 81.009C165.668 79.7717 199.014 206.999 160.307 197.319C137.096 191.515 146.091 123.697 122.361 122.881C97.9643 122.041 99.719 203.663 75.9272 197.319C62.3365 193.696 59.4001 166.036 45.4708 165.334Z" fill="url(#paint1_linear_94_2755)"/>
<path d="M24.252 230.705C24.252 231.4 24.1992 232.021 24.0938 232.568C23.9883 233.115 23.8223 233.578 23.5957 233.957C23.3691 234.336 23.0762 234.625 22.7168 234.824C22.3574 235.02 21.9258 235.117 21.4219 235.117C20.7852 235.117 20.2578 234.943 19.8398 234.596C19.4258 234.248 19.1152 233.746 18.9082 233.09C18.7051 232.43 18.6035 231.635 18.6035 230.705C18.6035 229.791 18.6953 229.006 18.8789 228.35C19.0664 227.689 19.3672 227.184 19.7812 226.832C20.1953 226.477 20.7422 226.299 21.4219 226.299C22.0664 226.299 22.5977 226.475 23.0156 226.826C23.4336 227.174 23.7441 227.678 23.9473 228.338C24.1504 228.994 24.252 229.783 24.252 230.705ZM19.582 230.705C19.582 231.502 19.6426 232.166 19.7637 232.697C19.8848 233.229 20.0801 233.627 20.3496 233.893C20.623 234.154 20.9805 234.285 21.4219 234.285C21.8633 234.285 22.2188 234.154 22.4883 233.893C22.7617 233.631 22.959 233.234 23.0801 232.703C23.2051 232.172 23.2676 231.506 23.2676 230.705C23.2676 229.92 23.207 229.264 23.0859 228.736C22.9648 228.205 22.7695 227.807 22.5 227.541C22.2305 227.271 21.8711 227.137 21.4219 227.137C20.9727 227.137 20.6133 227.271 20.3438 227.541C20.0742 227.807 19.8789 228.205 19.7578 228.736C19.6406 229.264 19.582 229.92 19.582 230.705Z" fill="#080338"/>
<path d="M102.205 235H96.5918V234.186L98.8828 231.859C99.3086 231.43 99.666 231.047 99.9551 230.711C100.248 230.375 100.471 230.045 100.623 229.721C100.775 229.393 100.852 229.033 100.852 228.643C100.852 228.158 100.707 227.789 100.418 227.535C100.133 227.277 99.7559 227.148 99.2871 227.148C98.877 227.148 98.5137 227.219 98.1973 227.359C97.8809 227.5 97.5566 227.699 97.2246 227.957L96.7031 227.301C96.9297 227.109 97.1758 226.939 97.4414 226.791C97.7109 226.643 97.998 226.525 98.3027 226.439C98.6113 226.354 98.9395 226.311 99.2871 226.311C99.8145 226.311 100.27 226.402 100.652 226.586C101.035 226.77 101.33 227.031 101.537 227.371C101.748 227.711 101.854 228.115 101.854 228.584C101.854 229.037 101.764 229.459 101.584 229.85C101.404 230.236 101.152 230.621 100.828 231.004C100.504 231.383 100.125 231.785 99.6914 232.211L97.8281 234.068V234.109H102.205V235ZM106.166 229.762C106.748 229.762 107.254 229.861 107.684 230.061C108.113 230.256 108.445 230.541 108.68 230.916C108.918 231.291 109.037 231.746 109.037 232.281C109.037 232.867 108.91 233.373 108.656 233.799C108.402 234.221 108.037 234.547 107.561 234.777C107.084 235.004 106.514 235.117 105.85 235.117C105.404 235.117 104.99 235.078 104.607 235C104.225 234.922 103.902 234.805 103.641 234.648V233.723C103.926 233.895 104.271 234.031 104.678 234.133C105.084 234.234 105.479 234.285 105.861 234.285C106.295 234.285 106.674 234.217 106.998 234.08C107.326 233.939 107.58 233.729 107.76 233.447C107.943 233.162 108.035 232.805 108.035 232.375C108.035 231.805 107.859 231.365 107.508 231.057C107.16 230.744 106.609 230.588 105.855 230.588C105.613 230.588 105.348 230.607 105.059 230.646C104.77 230.686 104.531 230.729 104.344 230.775L103.852 230.453L104.18 226.434H108.439V227.324H105.012L104.795 229.908C104.943 229.877 105.135 229.846 105.369 229.814C105.604 229.779 105.869 229.762 106.166 229.762Z" fill="#080338"/>
<path d="M188.299 229.762C188.881 229.762 189.387 229.861 189.816 230.061C190.246 230.256 190.578 230.541 190.812 230.916C191.051 231.291 191.17 231.746 191.17 232.281C191.17 232.867 191.043 233.373 190.789 233.799C190.535 234.221 190.17 234.547 189.693 234.777C189.217 235.004 188.646 235.117 187.982 235.117C187.537 235.117 187.123 235.078 186.74 235C186.357 234.922 186.035 234.805 185.773 234.648V233.723C186.059 233.895 186.404 234.031 186.811 234.133C187.217 234.234 187.611 234.285 187.994 234.285C188.428 234.285 188.807 234.217 189.131 234.08C189.459 233.939 189.713 233.729 189.893 233.447C190.076 233.162 190.168 232.805 190.168 232.375C190.168 231.805 189.992 231.365 189.641 231.057C189.293 230.744 188.742 230.588 187.988 230.588C187.746 230.588 187.48 230.607 187.191 230.646C186.902 230.686 186.664 230.729 186.477 230.775L185.984 230.453L186.312 226.434H190.572V227.324H187.145L186.928 229.908C187.076 229.877 187.268 229.846 187.502 229.814C187.736 229.779 188.002 229.762 188.299 229.762ZM198.119 230.705C198.119 231.4 198.066 232.021 197.961 232.568C197.855 233.115 197.689 233.578 197.463 233.957C197.236 234.336 196.943 234.625 196.584 234.824C196.225 235.02 195.793 235.117 195.289 235.117C194.652 235.117 194.125 234.943 193.707 234.596C193.293 234.248 192.982 233.746 192.775 233.09C192.572 232.43 192.471 231.635 192.471 230.705C192.471 229.791 192.562 229.006 192.746 228.35C192.934 227.689 193.234 227.184 193.648 226.832C194.062 226.477 194.609 226.299 195.289 226.299C195.934 226.299 196.465 226.475 196.883 226.826C197.301 227.174 197.611 227.678 197.814 228.338C198.018 228.994 198.119 229.783 198.119 230.705ZM193.449 230.705C193.449 231.502 193.51 232.166 193.631 232.697C193.752 233.229 193.947 233.627 194.217 233.893C194.49 234.154 194.848 234.285 195.289 234.285C195.73 234.285 196.086 234.154 196.355 233.893C196.629 233.631 196.826 233.234 196.947 232.703C197.072 232.172 197.135 231.506 197.135 230.705C197.135 229.92 197.074 229.264 196.953 228.736C196.832 228.205 196.637 227.807 196.367 227.541C196.098 227.271 195.738 227.137 195.289 227.137C194.84 227.137 194.48 227.271 194.211 227.541C193.941 227.807 193.746 228.205 193.625 228.736C193.508 229.264 193.449 229.92 193.449 230.705Z" fill="#080338"/>
<path d="M274.699 235L278.215 227.324H273.545V226.434H279.258V227.184L275.766 235H274.699ZM283.166 229.762C283.748 229.762 284.254 229.861 284.684 230.061C285.113 230.256 285.445 230.541 285.68 230.916C285.918 231.291 286.037 231.746 286.037 232.281C286.037 232.867 285.91 233.373 285.656 233.799C285.402 234.221 285.037 234.547 284.561 234.777C284.084 235.004 283.514 235.117 282.85 235.117C282.404 235.117 281.99 235.078 281.607 235C281.225 234.922 280.902 234.805 280.641 234.648V233.723C280.926 233.895 281.271 234.031 281.678 234.133C282.084 234.234 282.479 234.285 282.861 234.285C283.295 234.285 283.674 234.217 283.998 234.08C284.326 233.939 284.58 233.729 284.76 233.447C284.943 233.162 285.035 232.805 285.035 232.375C285.035 231.805 284.859 231.365 284.508 231.057C284.16 230.744 283.609 230.588 282.855 230.588C282.613 230.588 282.348 230.607 282.059 230.646C281.77 230.686 281.531 230.729 281.344 230.775L280.852 230.453L281.18 226.434H285.439V227.324H282.012L281.795 229.908C281.943 229.877 282.135 229.846 282.369 229.814C282.604 229.779 282.869 229.762 283.166 229.762Z" fill="#080338"/>
<path d="M365.213 235H364.264V228.93C364.264 228.699 364.264 228.502 364.264 228.338C364.268 228.17 364.271 228.018 364.275 227.881C364.283 227.74 364.293 227.598 364.305 227.453C364.184 227.578 364.07 227.686 363.965 227.775C363.859 227.861 363.729 227.969 363.572 228.098L362.594 228.883L362.084 228.221L364.404 226.434H365.213V235ZM374.119 230.705C374.119 231.4 374.066 232.021 373.961 232.568C373.855 233.115 373.689 233.578 373.463 233.957C373.236 234.336 372.943 234.625 372.584 234.824C372.225 235.02 371.793 235.117 371.289 235.117C370.652 235.117 370.125 234.943 369.707 234.596C369.293 234.248 368.982 233.746 368.775 233.09C368.572 232.43 368.471 231.635 368.471 230.705C368.471 229.791 368.562 229.006 368.746 228.35C368.934 227.689 369.234 227.184 369.648 226.832C370.062 226.477 370.609 226.299 371.289 226.299C371.934 226.299 372.465 226.475 372.883 226.826C373.301 227.174 373.611 227.678 373.814 228.338C374.018 228.994 374.119 229.783 374.119 230.705ZM369.449 230.705C369.449 231.502 369.51 232.166 369.631 232.697C369.752 233.229 369.947 233.627 370.217 233.893C370.49 234.154 370.848 234.285 371.289 234.285C371.73 234.285 372.086 234.154 372.355 233.893C372.629 233.631 372.826 233.234 372.947 232.703C373.072 232.172 373.135 231.506 373.135 230.705C373.135 229.92 373.074 229.264 372.953 228.736C372.832 228.205 372.637 227.807 372.367 227.541C372.098 227.271 371.738 227.137 371.289 227.137C370.84 227.137 370.48 227.271 370.211 227.541C369.941 227.807 369.746 228.205 369.625 228.736C369.508 229.264 369.449 229.92 369.449 230.705ZM380.986 230.705C380.986 231.4 380.934 232.021 380.828 232.568C380.723 233.115 380.557 233.578 380.33 233.957C380.104 234.336 379.811 234.625 379.451 234.824C379.092 235.02 378.66 235.117 378.156 235.117C377.52 235.117 376.992 234.943 376.574 234.596C376.16 234.248 375.85 233.746 375.643 233.09C375.439 232.43 375.338 231.635 375.338 230.705C375.338 229.791 375.43 229.006 375.613 228.35C375.801 227.689 376.102 227.184 376.516 226.832C376.93 226.477 377.477 226.299 378.156 226.299C378.801 226.299 379.332 226.475 379.75 226.826C380.168 227.174 380.479 227.678 380.682 228.338C380.885 228.994 380.986 229.783 380.986 230.705ZM376.316 230.705C376.316 231.502 376.377 232.166 376.498 232.697C376.619 233.229 376.814 233.627 377.084 233.893C377.357 234.154 377.715 234.285 378.156 234.285C378.598 234.285 378.953 234.154 379.223 233.893C379.496 233.631 379.693 233.234 379.814 232.703C379.939 232.172 380.002 231.506 380.002 230.705C380.002 229.92 379.941 229.264 379.82 228.736C379.699 228.205 379.504 227.807 379.234 227.541C378.965 227.271 378.605 227.137 378.156 227.137C377.707 227.137 377.348 227.271 377.078 227.541C376.809 227.807 376.613 228.205 376.492 228.736C376.375 229.264 376.316 229.92 376.316 230.705Z" fill="#080338"/>
<path d="M32.7734 41H31.1133V34.2715H23.6133V41H21.9531V26.7227H23.6133V32.8066H31.1133V26.7227H32.7734V41ZM45.293 30.2969V41H43.9648L43.7305 39.4961H43.6426C43.4212 39.8672 43.1348 40.1797 42.7832 40.4336C42.4316 40.6875 42.0345 40.8763 41.5918 41C41.1556 41.1302 40.6901 41.1953 40.1953 41.1953C39.349 41.1953 38.6393 41.0586 38.0664 40.7852C37.4935 40.5117 37.0605 40.0885 36.7676 39.5156C36.4811 38.9427 36.3379 38.207 36.3379 37.3086V30.2969H37.9785V37.1914C37.9785 38.0833 38.1803 38.7507 38.584 39.1934C38.9876 39.6296 39.6029 39.8477 40.4297 39.8477C41.224 39.8477 41.8555 39.6979 42.3242 39.3984C42.7995 39.099 43.1413 38.6595 43.3496 38.0801C43.5579 37.4941 43.6621 36.778 43.6621 35.9316V30.2969H45.293ZM60.3418 30.1016C61.5202 30.1016 62.4089 30.4108 63.0078 31.0293C63.6068 31.6413 63.9062 32.6276 63.9062 33.9883V41H62.3047V34.0664C62.3047 33.2005 62.1159 32.5527 61.7383 32.123C61.3672 31.6868 60.8138 31.4688 60.0781 31.4688C59.043 31.4688 58.291 31.7682 57.8223 32.3672C57.3535 32.9661 57.1191 33.8483 57.1191 35.0137V41H55.5078V34.0664C55.5078 33.487 55.4232 33.0052 55.2539 32.6211C55.0911 32.237 54.8438 31.9505 54.5117 31.7617C54.1862 31.5664 53.7728 31.4688 53.2715 31.4688C52.5618 31.4688 51.9922 31.6152 51.5625 31.9082C51.1328 32.2012 50.8203 32.6374 50.625 33.2168C50.4362 33.7897 50.3418 34.4961 50.3418 35.3359V41H48.7207V30.2969H50.0293L50.2734 31.8105H50.3613C50.5762 31.4395 50.8464 31.127 51.1719 30.873C51.4974 30.6191 51.862 30.4271 52.2656 30.2969C52.6693 30.1667 53.099 30.1016 53.5547 30.1016C54.3685 30.1016 55.0488 30.2546 55.5957 30.5605C56.1491 30.86 56.5495 31.319 56.7969 31.9375H56.8848C57.2363 31.319 57.7181 30.86 58.3301 30.5605C58.9421 30.2546 59.6126 30.1016 60.3418 30.1016ZM68.8574 30.2969V41H67.2363V30.2969H68.8574ZM68.0664 26.293C68.3333 26.293 68.5612 26.3809 68.75 26.5566C68.9453 26.7259 69.043 26.9928 69.043 27.3574C69.043 27.7155 68.9453 27.9824 68.75 28.1582C68.5612 28.334 68.3333 28.4219 68.0664 28.4219C67.7865 28.4219 67.5521 28.334 67.3633 28.1582C67.181 27.9824 67.0898 27.7155 67.0898 27.3574C67.0898 26.9928 67.181 26.7259 67.3633 26.5566C67.5521 26.3809 67.7865 26.293 68.0664 26.293ZM76.1035 41.1953C74.7493 41.1953 73.6751 40.7331 72.8809 39.8086C72.0931 38.8841 71.6992 37.5104 71.6992 35.6875C71.6992 33.8451 72.1029 32.4551 72.9102 31.5176C73.7174 30.5736 74.7917 30.1016 76.1328 30.1016C76.6992 30.1016 77.194 30.1764 77.6172 30.3262C78.0404 30.4759 78.4049 30.6777 78.7109 30.9316C79.0169 31.179 79.2741 31.4622 79.4824 31.7812H79.5996C79.5736 31.5794 79.5475 31.3027 79.5215 30.9512C79.4954 30.5996 79.4824 30.3132 79.4824 30.0918V25.8047H81.1035V41H79.7949L79.5508 39.4766H79.4824C79.2806 39.7956 79.0234 40.0853 78.7109 40.3457C78.4049 40.6061 78.0371 40.8145 77.6074 40.9707C77.1842 41.1204 76.6829 41.1953 76.1035 41.1953ZM76.3574 39.8477C77.5033 39.8477 78.3138 39.5221 78.7891 38.8711C79.2643 38.2201 79.502 37.2533 79.502 35.9707V35.6777C79.502 34.3171 79.2741 33.2721 78.8184 32.543C78.3691 31.8138 77.5488 31.4492 76.3574 31.4492C75.3613 31.4492 74.6159 31.8333 74.1211 32.6016C73.6263 33.3633 73.3789 34.4049 73.3789 35.7266C73.3789 37.0417 73.623 38.0573 74.1113 38.7734C74.6061 39.4896 75.3548 39.8477 76.3574 39.8477ZM86.1621 30.2969V41H84.541V30.2969H86.1621ZM85.3711 26.293C85.638 26.293 85.8659 26.3809 86.0547 26.5566C86.25 26.7259 86.3477 26.9928 86.3477 27.3574C86.3477 27.7155 86.25 27.9824 86.0547 28.1582C85.8659 28.334 85.638 28.4219 85.3711 28.4219C85.0911 28.4219 84.8568 28.334 84.668 28.1582C84.4857 27.9824 84.3945 27.7155 84.3945 27.3574C84.3945 26.9928 84.4857 26.7259 84.668 26.5566C84.8568 26.3809 85.0911 26.293 85.3711 26.293ZM93.0566 39.8672C93.3236 39.8672 93.597 39.8444 93.877 39.7988C94.1569 39.7533 94.3848 39.6979 94.5605 39.6328V40.8926C94.3717 40.9772 94.1081 41.0488 93.7695 41.1074C93.4375 41.166 93.112 41.1953 92.793 41.1953C92.2266 41.1953 91.7122 41.0977 91.25 40.9023C90.7878 40.7005 90.4167 40.362 90.1367 39.8867C89.8633 39.4115 89.7266 38.7539 89.7266 37.9141V31.5664H88.2031V30.7754L89.7363 30.1406L90.3809 27.8164H91.3574V30.2969H94.4922V31.5664H91.3574V37.8652C91.3574 38.5358 91.5104 39.0371 91.8164 39.3691C92.1289 39.7012 92.5423 39.8672 93.0566 39.8672ZM95.0391 30.2969H96.7773L99.1406 36.5078C99.2773 36.8724 99.4043 37.224 99.5215 37.5625C99.6387 37.8945 99.7428 38.2135 99.834 38.5195C99.9251 38.8255 99.9967 39.1217 100.049 39.4082H100.117C100.208 39.0827 100.339 38.6562 100.508 38.1289C100.677 37.5951 100.859 37.0514 101.055 36.498L103.291 30.2969H105.039L100.381 42.5723C100.133 43.2298 99.8438 43.8027 99.5117 44.291C99.1862 44.7793 98.7891 45.1536 98.3203 45.4141C97.8516 45.681 97.2852 45.8145 96.6211 45.8145C96.3151 45.8145 96.0449 45.7949 95.8105 45.7559C95.5762 45.7233 95.3743 45.6842 95.2051 45.6387V44.3398C95.3483 44.3724 95.5208 44.4017 95.7227 44.4277C95.931 44.4538 96.1458 44.4668 96.3672 44.4668C96.7708 44.4668 97.1191 44.3887 97.4121 44.2324C97.7116 44.0827 97.9688 43.8613 98.1836 43.5684C98.3984 43.2754 98.584 42.9271 98.7402 42.5234L99.3262 41.0195L95.0391 30.2969Z" fill="#080338"/>
<path d="M338.498 32.2695C339.468 32.2695 340.311 32.4355 341.027 32.7676C341.743 33.0931 342.297 33.5684 342.688 34.1934C343.085 34.8184 343.283 35.5768 343.283 36.4688C343.283 37.4453 343.072 38.2884 342.648 38.998C342.225 39.7012 341.617 40.2448 340.822 40.6289C340.028 41.0065 339.077 41.1953 337.971 41.1953C337.229 41.1953 336.538 41.1302 335.9 41C335.262 40.8698 334.725 40.6745 334.289 40.4141V38.8711C334.764 39.1576 335.34 39.3854 336.018 39.5547C336.695 39.724 337.352 39.8086 337.99 39.8086C338.713 39.8086 339.344 39.6947 339.885 39.4668C340.432 39.2324 340.855 38.8809 341.154 38.4121C341.46 37.9368 341.613 37.3411 341.613 36.625C341.613 35.6745 341.32 34.9421 340.734 34.4277C340.155 33.9069 339.237 33.6465 337.98 33.6465C337.577 33.6465 337.134 33.679 336.652 33.7441C336.171 33.8092 335.773 33.8809 335.461 33.959L334.641 33.4219L335.188 26.7227H342.287V28.207H336.574L336.213 32.5137C336.46 32.4616 336.779 32.4095 337.17 32.3574C337.561 32.2988 338.003 32.2695 338.498 32.2695ZM349.943 32.2695C350.913 32.2695 351.757 32.4355 352.473 32.7676C353.189 33.0931 353.742 33.5684 354.133 34.1934C354.53 34.8184 354.729 35.5768 354.729 36.4688C354.729 37.4453 354.517 38.2884 354.094 38.998C353.671 39.7012 353.062 40.2448 352.268 40.6289C351.473 41.0065 350.523 41.1953 349.416 41.1953C348.674 41.1953 347.984 41.1302 347.346 41C346.708 40.8698 346.171 40.6745 345.734 40.4141V38.8711C346.21 39.1576 346.786 39.3854 347.463 39.5547C348.14 39.724 348.798 39.8086 349.436 39.8086C350.158 39.8086 350.79 39.6947 351.33 39.4668C351.877 39.2324 352.3 38.8809 352.6 38.4121C352.906 37.9368 353.059 37.3411 353.059 36.625C353.059 35.6745 352.766 34.9421 352.18 34.4277C351.6 33.9069 350.682 33.6465 349.426 33.6465C349.022 33.6465 348.579 33.679 348.098 33.7441C347.616 33.8092 347.219 33.8809 346.906 33.959L346.086 33.4219L346.633 26.7227H353.732V28.207H348.02L347.658 32.5137C347.906 32.4616 348.225 32.4095 348.615 32.3574C349.006 32.2988 349.449 32.2695 349.943 32.2695ZM359.787 26.5176C360.764 26.5176 361.503 26.9082 362.004 27.6895C362.512 28.4642 362.766 29.5612 362.766 30.9805C362.766 32.3997 362.521 33.5065 362.033 34.3008C361.545 35.0885 360.796 35.4824 359.787 35.4824C358.85 35.4824 358.13 35.0885 357.629 34.3008C357.134 33.5065 356.887 32.3997 356.887 30.9805C356.887 29.5612 357.124 28.4642 357.6 27.6895C358.075 26.9082 358.804 26.5176 359.787 26.5176ZM359.787 27.6797C359.26 27.6797 358.872 27.9564 358.625 28.5098C358.378 29.0566 358.254 29.8802 358.254 30.9805C358.254 32.0807 358.378 32.9108 358.625 33.4707C358.872 34.0306 359.26 34.3105 359.787 34.3105C360.334 34.3105 360.741 34.0306 361.008 33.4707C361.275 32.9108 361.408 32.0807 361.408 30.9805C361.408 29.8867 361.275 29.0632 361.008 28.5098C360.747 27.9564 360.34 27.6797 359.787 27.6797ZM368.83 26.7227L360.91 41H359.484L367.404 26.7227H368.83ZM368.449 32.2402C369.419 32.2402 370.158 32.6309 370.666 33.4121C371.174 34.1868 371.428 35.2839 371.428 36.7031C371.428 38.1159 371.184 39.2194 370.695 40.0137C370.207 40.8014 369.458 41.1953 368.449 41.1953C367.505 41.1953 366.786 40.8014 366.291 40.0137C365.796 39.2194 365.549 38.1159 365.549 36.7031C365.549 35.2839 365.783 34.1868 366.252 33.4121C366.727 32.6309 367.46 32.2402 368.449 32.2402ZM368.449 33.4121C367.922 33.4121 367.535 33.6855 367.287 34.2324C367.04 34.7793 366.916 35.6029 366.916 36.7031C366.916 37.8034 367.04 38.6335 367.287 39.1934C367.535 39.7467 367.922 40.0234 368.449 40.0234C368.996 40.0234 369.403 39.75 369.67 39.2031C369.937 38.6497 370.07 37.8164 370.07 36.7031C370.07 35.6094 369.937 34.7891 369.67 34.2422C369.41 33.6888 369.003 33.4121 368.449 33.4121Z" fill="#080338"/>
<rect x="0.5" y="0.5" width="392" height="275" rx="29.5" stroke="url(#paint2_linear_94_2755)" stroke-opacity="0.4"/>
<defs>
<linearGradient id="paint0_linear_94_2755" x1="55.3591" y1="-18" x2="151.605" y2="427.673" gradientUnits="userSpaceOnUse">
<stop stop-opacity="0.03"/>
<stop offset="0.9997" stop-color="white" stop-opacity="0.093125"/>
<stop offset="0.9998" stop-color="white" stop-opacity="0.112968"/>
<stop offset="0.9999" stop-color="white" stop-opacity="0.111191"/>
<stop offset="1" stop-color="white" stop-opacity="0.15"/>
</linearGradient>
<linearGradient id="paint1_linear_94_2755" x1="2.03281" y1="186.261" x2="201.614" y2="153.376" gradientUnits="userSpaceOnUse">
<stop stop-color="#333FAA"/>
<stop offset="1" stop-color="#0028B8" stop-opacity="0"/>
</linearGradient>
<linearGradient id="paint2_linear_94_2755" x1="-313.203" y1="-233.5" x2="441.194" y2="310.679" gradientUnits="userSpaceOnUse">
<stop stop-color="#494949"/>
<stop offset="1" stop-color="white" stop-opacity="0"/>
</linearGradient>
</defs>
</svg>
