<svg width="373" height="168" viewBox="0 0 373 168" fill="none" xmlns="http://www.w3.org/2000/svg">
<path d="M351.182 149.861C351.182 111.176 334.08 74.0761 303.637 46.7218C273.195 19.3675 231.905 4 188.853 4C145.8 4 104.511 19.3675 74.0687 46.7218C43.626 74.0761 26.5234 111.176 26.5234 149.861" stroke="#080338" stroke-dasharray="7.84 7.84"/>
<path d="M135.526 19.923C139.123 19.923 142.039 17.0073 142.039 13.4107C142.039 9.81406 139.123 6.89842 135.526 6.89842C131.93 6.89842 129.014 9.81406 129.014 13.4107C129.014 17.0073 131.93 19.923 135.526 19.923Z" fill="url(#paint0_linear_94_2748)" stroke="url(#paint1_linear_94_2748)" stroke-width="1.5684"/>
<path fill-rule="evenodd" clip-rule="evenodd" d="M135.527 4C135.244 4 135.015 4.22898 135.015 4.51144V6.14803C135.015 6.43048 135.244 6.65946 135.527 6.65946C135.809 6.65946 136.038 6.43048 136.038 6.14803V4.51144C136.038 4.22898 135.809 4 135.527 4ZM135.527 20.1615C135.244 20.1615 135.015 20.3905 135.015 20.6729V22.3095C135.015 22.592 135.244 22.821 135.527 22.821C135.809 22.821 136.038 22.592 136.038 22.3095V20.6729C136.038 20.3905 135.809 20.1615 135.527 20.1615ZM139.534 5.44782C139.675 5.20321 139.988 5.1194 140.232 5.26063C140.477 5.40185 140.561 5.71464 140.419 5.95926L139.601 7.37659C139.46 7.6212 139.147 7.70502 138.902 7.56379C138.658 7.42256 138.574 7.10977 138.715 6.86515L139.534 5.44782ZM132.151 19.2568C131.907 19.1155 131.594 19.1993 131.453 19.444L130.634 20.8613C130.493 21.1059 130.577 21.4187 130.822 21.5599C131.066 21.7012 131.379 21.6173 131.52 21.3727L132.338 19.9554C132.48 19.7108 132.396 19.398 132.151 19.2568ZM142.978 8.51789C143.222 8.37666 143.535 8.46048 143.676 8.70509C143.818 8.94971 143.734 9.2625 143.489 9.40372L142.072 10.222C141.827 10.3632 141.514 10.2794 141.373 10.0348C141.232 9.79021 141.316 9.47742 141.56 9.33619L142.978 8.51789ZM129.68 16.7856C129.539 16.541 129.226 16.4572 128.981 16.5984L127.564 17.4167C127.319 17.5579 127.236 17.8707 127.377 18.1153C127.518 18.36 127.831 18.4438 128.076 18.3025L129.493 17.4842C129.737 17.343 129.821 17.0302 129.68 16.7856ZM144.425 12.8987C144.708 12.8987 144.937 13.1277 144.937 13.4102C144.937 13.6926 144.708 13.9216 144.425 13.9216H142.789C142.506 13.9216 142.277 13.6926 142.277 13.4102C142.277 13.1277 142.506 12.8987 142.789 12.8987H144.425ZM128.775 13.4102C128.775 13.1277 128.546 12.8987 128.264 12.8987H126.627C126.345 12.8987 126.116 13.1277 126.116 13.4102C126.116 13.6926 126.345 13.9216 126.627 13.9216H128.264C128.546 13.9216 128.775 13.6926 128.775 13.4102ZM143.489 17.4171C143.734 17.5583 143.817 17.8711 143.676 18.1157C143.535 18.3603 143.222 18.4441 142.978 18.3029L141.56 17.4846C141.316 17.3434 141.232 17.0306 141.373 16.786C141.514 16.5414 141.827 16.4576 142.072 16.5988L143.489 17.4171ZM129.68 10.0352C129.821 9.79054 129.737 9.47775 129.493 9.33652L128.076 8.51823C127.831 8.377 127.518 8.46081 127.377 8.70542C127.236 8.95004 127.319 9.26283 127.564 9.40406L128.981 10.2224C129.226 10.3636 129.539 10.2798 129.68 10.0352ZM140.418 20.8614C140.56 21.106 140.476 21.4188 140.231 21.56C139.987 21.7012 139.674 21.6174 139.533 21.3728L138.714 19.9555C138.573 19.7109 138.657 19.3981 138.901 19.2568C139.146 19.1156 139.459 19.1994 139.6 19.444L140.418 20.8614ZM132.15 7.56386C132.395 7.42263 132.479 7.10984 132.337 6.86523L131.519 5.44789C131.378 5.20328 131.065 5.11947 130.821 5.2607C130.576 5.40193 130.492 5.71471 130.633 5.95933L131.452 7.37666C131.593 7.62128 131.906 7.70509 132.15 7.56386Z" fill="url(#paint2_linear_94_2748)"/>
<path d="M0 154H373" stroke="#080338"/>
<g filter="url(#filter0_f_94_2748)">
<path d="M137.88 157.703V9.48926C137.88 9.48926 112.098 20.5406 97.5699 30.2216C80.4086 41.6574 58.7715 64.6283 58.7715 64.6283C58.7715 64.6283 41.4716 88.5932 35.0893 105.652C27.7872 125.169 26.5234 157.703 26.5234 157.703H137.88Z" fill="url(#paint3_linear_94_2748)"/>
</g>
<path d="M21.4258 151.822H31.6204" stroke="#080338"/>
<path d="M346.477 152.214H356.671" stroke="#080338"/>
<defs>
<filter id="filter0_f_94_2748" x="17.113" y="0.0788536" width="130.177" height="167.035" filterUnits="userSpaceOnUse" color-interpolation-filters="sRGB">
<feFlood flood-opacity="0" result="BackgroundImageFix"/>
<feBlend mode="normal" in="SourceGraphic" in2="BackgroundImageFix" result="shape"/>
<feGaussianBlur stdDeviation="4.7052" result="effect1_foregroundBlur_94_2748"/>
</filter>
<linearGradient id="paint0_linear_94_2748" x1="138.748" y1="8.50091" x2="133.549" y2="19.1835" gradientUnits="userSpaceOnUse">
<stop offset="0.182844" stop-color="#FFE600"/>
<stop offset="0.980542" stop-color="#F09000"/>
</linearGradient>
<linearGradient id="paint1_linear_94_2748" x1="132.6" y1="6.37266" x2="140.667" y2="25.747" gradientUnits="userSpaceOnUse">
<stop stop-color="#FFE600"/>
<stop offset="1" stop-color="#9C8D00"/>
</linearGradient>
<linearGradient id="paint2_linear_94_2748" x1="142.431" y1="6.45489" x2="128.469" y2="22.8208" gradientUnits="userSpaceOnUse">
<stop stop-color="#FFE600"/>
<stop offset="1" stop-color="#AA9900"/>
</linearGradient>
<linearGradient id="paint3_linear_94_2748" x1="140.903" y1="5.96036" x2="94.8066" y2="161.44" gradientUnits="userSpaceOnUse">
<stop stop-color="#F6DE01" stop-opacity="0.16"/>
<stop offset="1" stop-color="#F6DE01" stop-opacity="0"/>
</linearGradient>
</defs>
</svg>
